<svg width="72" height="72" viewBox="0 0 72 72" fill="none" xmlns="http://www.w3.org/2000/svg">
<g clip-path="url(#clip0_1053_1872)">
<path fill-rule="evenodd" clip-rule="evenodd" d="M69.3098 23.0396C67.8033 21.6796 65.8766 20.8763 63.8503 20.7631C61.8239 20.6499 59.8198 21.2337 58.1712 22.4175C56.7932 23.6478 55.7439 25.2022 55.118 26.9402C54.4921 28.6782 54.3095 30.5448 54.5867 32.3711C54.4735 32.6685 54.3023 32.9404 54.0831 33.171C52.6611 31.749 52.3945 31.1862 51.6539 30.7418C50.8439 30.3327 49.9609 30.088 49.0559 30.0219C48.1509 29.9558 47.2417 30.0696 46.3809 30.3567C45.5667 30.6425 44.8899 31.2241 44.4849 31.986C42.6646 32.7513 41.1743 34.1367 40.2783 35.8964C38.9453 39.155 41.0189 41.8212 42.826 44.4873C43.7129 45.8081 44.7035 47.0562 45.7884 48.2199C48.8228 50.8419 52.4218 52.7276 56.3049 53.73C57.2065 53.7783 58.1063 53.6067 58.9269 53.23C59.7474 52.8533 60.4641 52.2827 61.0151 51.5674C62.911 49.4049 65.3402 46.1462 64.5403 43.5097C63.1776 38.8884 58.9118 38.7106 60.4819 41.0509C61.2814 41.9148 61.9142 42.9192 62.3482 44.0133C62.3897 44.3075 62.3694 44.6071 62.2884 44.893C62.2075 45.1788 62.0677 45.4446 61.8781 45.6733C61.6884 45.902 61.4531 46.0886 61.1871 46.221C60.9212 46.3535 60.6305 46.4289 60.3337 46.4425C57.8453 46.7091 50.706 41.3472 48.4842 37.0221C47.7442 36.0322 47.2104 34.904 46.9141 33.7042C46.9141 31.8971 49.8765 31.8379 50.9429 32.3415L53.1351 34.3559C52.1575 35.3335 50.8541 36.6073 51.7428 37.3183C51.9075 37.4724 52.1245 37.5582 52.3501 37.5582C52.5756 37.5582 52.7927 37.4724 52.9574 37.3183C53.4017 36.1037 56.0975 34.6818 56.8381 32.8451C57.5787 31.0084 56.2456 29.231 58.8525 25.8835C59.8445 24.7062 61.2558 23.9613 62.7874 23.8065C64.3191 23.6517 65.8509 24.0991 67.0584 25.054C69.6356 27.7794 68.3026 34.3855 64.096 35.3039C62.4963 35.689 61.1336 35.3039 59.6524 36.4888C58.9404 37.1573 58.3046 37.9024 57.7564 38.7106C56.8974 39.866 55.8605 40.8732 57.1047 41.4064C58.3489 41.9396 58.4674 41.1102 59.3858 40.0141C59.8599 39.3708 60.4066 38.7843 61.0151 38.2663C61.963 37.6146 63.2665 38.2663 65.1328 37.7034C66.5129 37.1724 67.7506 36.3278 68.7483 35.2362C69.7459 34.1447 70.4761 32.8362 70.8812 31.414C71.2863 29.9919 71.3552 28.495 71.0825 27.0416C70.8098 25.5882 70.2029 24.2181 69.3098 23.0396ZM49.4025 43.7763C51.5947 45.8796 56.4234 49.3456 59.8894 49.2271C58.8525 50.3825 57.6676 51.4489 56.216 50.9749C51.7685 49.4946 47.9695 46.5224 45.4625 42.5617C44.4346 41.4623 43.5489 40.2381 42.826 38.918C42.5001 38.276 42.396 37.5441 42.53 36.8366C42.664 36.1292 43.0285 35.486 43.5666 35.0076L44.0406 34.6225C44.911 38.1513 46.7713 41.358 49.4025 43.8652V43.7763Z" fill="black"/>
<path fill-rule="evenodd" clip-rule="evenodd" d="M37.6418 64.7501C34.6086 65.9228 31.446 66.7284 28.2214 67.1496C24.9035 67.5051 22.2966 68.2753 20.5488 68.2457C20.3414 68.2457 20.1044 68.0383 20.0156 68.0976C16.0163 59.8029 2.3597 16.3446 1.88572 15.5447C1.80087 15.3916 1.67268 15.2669 1.51723 15.1864C1.36179 15.1058 1.18602 15.073 1.01198 15.092C0.837935 15.111 0.673379 15.1809 0.538958 15.2931C0.404537 15.4053 0.306241 15.5546 0.256405 15.7225C0.256405 15.9891 6.83292 40.5177 7.57352 43.0357C10.2547 52.0804 13.5811 60.9212 17.5272 69.4899C19.1269 72.4523 23.7482 70.2601 28.5473 69.4899C31.8742 68.8567 35.1223 67.8634 38.2343 66.5275C38.3891 66.3977 38.5013 66.2243 38.5562 66.0299C38.6112 65.8354 38.6065 65.629 38.5426 65.4373C38.4787 65.2456 38.3586 65.0776 38.198 64.955C38.0373 64.8325 37.8436 64.7611 37.6418 64.7501Z" fill="black"/>
<path fill-rule="evenodd" clip-rule="evenodd" d="M2.89293 13.6488C11.5627 10.426 20.479 7.90962 29.5545 6.1243C32.2955 5.51484 35.0779 5.10887 37.8788 4.90972C37.4937 7.87212 35.3904 16.3149 39.6859 16.7593C43.7751 16.595 47.663 14.9408 50.6171 12.1083C51.6243 16.6408 51.0911 14.5671 52.987 21.4695C53.0751 21.6661 53.2318 21.8241 53.4277 21.9138C53.6236 22.0036 53.8454 22.0192 54.0519 21.9576C54.2585 21.896 54.4356 21.7615 54.5503 21.579C54.665 21.3966 54.7095 21.1787 54.6756 20.9659C53.8456 17.5589 53.2126 14.1069 52.7796 10.6271C52.4538 8.3461 41.7003 1.23636 37.0789 1.73996C23.3631 2.92492 11.3654 8.37572 2.09308 11.8417C1.85345 11.9478 1.66577 12.1447 1.57132 12.3891C1.47688 12.6336 1.48341 12.9055 1.58947 13.1452C1.69554 13.3848 1.89245 13.5725 2.1369 13.6669C2.38134 13.7614 2.65329 13.7548 2.89293 13.6488ZM49.284 10.3309C48.0398 12.0787 42.826 13.2933 40.3968 13.2933C39.9979 10.6368 39.8294 7.95075 39.8932 5.26521C43.2254 6.5492 46.3809 8.2514 49.284 10.3309Z" fill="black"/>
<path fill-rule="evenodd" clip-rule="evenodd" d="M66.3178 53.7892C64.6292 53.7892 66.5844 56.248 63.622 61.6988L54.9422 58.292C54.1423 57.9958 54.5867 57.9069 45.1959 64.0687C44.2923 61.3541 43.234 58.6934 42.0261 56.0999C40.8116 54.4409 36.605 55.8333 30.6506 56.9293C34.9164 50.6491 35.657 49.7307 34.4128 48.5754C33.1686 47.4201 26.6513 43.3912 25.97 42.3544C26.7106 41.9989 28.014 41.436 29.3175 40.9028C32.9908 39.4512 33.4352 39.8067 33.7018 38.7402C33.9684 37.6738 33.0501 32.8155 33.2575 31.038C33.613 31.038 32.9316 30.8307 37.938 31.9267C38.1973 31.9582 38.4585 31.8853 38.664 31.7242C38.8696 31.5631 39.0027 31.3269 39.0341 31.0676C39.0656 30.8084 38.9927 30.5472 38.8316 30.3417C38.6705 30.1361 38.4343 30.003 38.175 29.9716C36.6642 29.7642 32.6057 27.8386 31.5393 29.468C31.0273 32.1436 30.9473 34.884 31.3023 37.5849C29.0624 38.2475 26.866 39.0489 24.7258 39.9845C23.8371 40.4288 22.8002 40.5769 22.5336 41.6434C22.267 42.7099 23.3631 43.8948 24.311 44.6058C25.259 45.3168 29.436 48.5754 31.3319 49.9973C29.4456 52.4984 27.6952 55.0992 26.0885 57.7884C25.8841 58.1863 25.8346 58.6459 25.9495 59.0782C26.0644 59.5105 26.3356 59.8848 26.7106 60.1287C28.0832 60.6584 29.6038 60.6584 30.9764 60.1287C32.7835 59.8029 37.5529 58.7068 39.8636 58.529C42.2335 63.2689 42.826 69.1937 45.5514 67.4162L54.8533 60.7212L63.7405 63.8317C63.9639 63.9166 64.2098 63.9216 64.4365 63.8461C64.6632 63.7705 64.8569 63.6189 64.9847 63.417C66.5422 60.7184 67.3311 57.6449 67.2657 54.5298C67.2361 54.3068 67.1203 54.1044 66.943 53.9659C66.7658 53.8274 66.5413 53.764 66.3178 53.7892Z" fill="black"/>
<path fill-rule="evenodd" clip-rule="evenodd" d="M29.8803 16.7889C30.1357 16.7339 30.3587 16.5797 30.5004 16.3603C30.6421 16.1408 30.6907 15.8741 30.6357 15.6188C30.5807 15.3634 30.4266 15.1404 30.2071 14.9987C29.9877 14.8571 29.7209 14.8084 29.4656 14.8634C23.323 15.9826 17.4386 18.2218 12.106 21.4695C11.997 21.5045 11.8961 21.5606 11.8088 21.6347C11.7216 21.7087 11.6498 21.7992 11.5975 21.901C11.5453 22.0028 11.5136 22.1138 11.5042 22.2279C11.4949 22.3419 11.5081 22.4567 11.5431 22.5656C11.5781 22.6745 11.6343 22.7755 11.7083 22.8627C11.7823 22.95 11.8728 23.0218 11.9746 23.074C12.0764 23.1263 12.1875 23.158 12.3015 23.1673C12.4155 23.1767 12.5303 23.1635 12.6392 23.1284C22.1781 21.114 25.3775 18.1516 29.8803 16.7889Z" fill="black"/>
<path fill-rule="evenodd" clip-rule="evenodd" d="M18.9491 31.1269C21.2659 30.9352 23.5265 30.3122 25.6145 29.2902C27.0117 28.4152 28.5428 27.7747 30.1469 27.3943C30.3807 27.3538 30.5927 27.232 30.7455 27.0504C30.8983 26.8689 30.9821 26.6392 30.9821 26.4019C30.9821 26.1646 30.8983 25.9349 30.7455 25.7534C30.5927 25.5718 30.3807 25.45 30.1469 25.4095C28.8327 25.2986 27.5093 25.4189 26.2366 25.765C24.4955 26.1631 22.8058 26.7595 21.2005 27.5424C21.9411 27.2758 16.4311 29.5568 16.3126 29.7938C15.6608 31.3343 17.3494 31.4232 18.9491 31.1269Z" fill="black"/>
</g>
<defs>
<clipPath id="clip0_1053_1872">
<rect width="71.0974" height="71.0974" fill="white" transform="translate(0.256405 0.732758)"/>
</clipPath>
</defs>
</svg>
